<svg width="297" height="475" viewBox="0 0 297 475" fill="none" xmlns="http://www.w3.org/2000/svg">
<g opacity="0.2" clip-path="url(#clip0_137_542)">
<g opacity="0.9">
<path d="M104.092 105H46.1277C39.0543 105 33.3202 110.664 33.3202 117.651V174.906C33.3202 181.893 39.0543 187.557 46.1277 187.557H104.092C111.165 187.557 116.899 181.893 116.899 174.906V117.651C116.899 110.664 111.165 105 104.092 105Z" fill="#8ECAE6"/>
</g>
<g opacity="0.9">
<path d="M104.092 212.5H46.1277C39.0543 212.5 33.3202 218.164 33.3202 225.151V282.406C33.3202 289.393 39.0543 295.057 46.1277 295.057H104.092C111.165 295.057 116.899 289.393 116.899 282.406V225.151C116.899 218.164 111.165 212.5 104.092 212.5Z" fill="#8ECAE6"/>
</g>
<g opacity="0.9">
<path d="M-6.40278 212.5H-64.3667C-71.4401 212.5 -77.1742 218.164 -77.1742 225.151V282.406C-77.1742 289.393 -71.4401 295.057 -64.3667 295.057H-6.40278C0.67057 295.057 6.40465 289.393 6.40465 282.406V225.151C6.40465 218.164 0.67057 212.5 -6.40278 212.5Z" fill="#F7FBFD"/>
<path d="M-3.89155 105H-61.8555C-68.9288 105 -74.6629 110.664 -74.6629 117.651V174.906C-74.6629 181.893 -68.9288 187.557 -61.8555 187.557H-3.89155C3.1818 187.557 8.91588 181.893 8.91588 174.906V117.651C8.91588 110.664 3.1818 105 -3.89155 105Z" fill="white"/>
<path d="M-6.40278 315H-64.3667C-71.4401 315 -77.1742 320.664 -77.1742 327.651V384.906C-77.1742 391.893 -71.4401 397.557 -64.3667 397.557H-6.40278C0.67057 397.557 6.40465 391.893 6.40465 384.906V327.651C6.40465 320.664 0.67057 315 -6.40278 315Z" fill="white"/>
</g>
<g opacity="0.9">
<path d="M212.075 105H154.111C147.037 105 141.303 110.664 141.303 117.651V174.906C141.303 181.893 147.037 187.557 154.111 187.557H212.075C219.148 187.557 224.882 181.893 224.882 174.906V117.651C224.882 110.664 219.148 105 212.075 105Z" fill="#80BBD6" fill-opacity="0.7"/>
<path d="M209.564 315H151.6C144.526 315 138.792 320.664 138.792 327.651V384.906C138.792 391.893 144.526 397.557 151.6 397.557H209.564C216.637 397.557 222.371 391.893 222.371 384.906V327.651C222.371 320.664 216.637 315 209.564 315Z" fill="#80BBD6" fill-opacity="0.7"/>
</g>
<g opacity="0.9">
<path d="M104.092 320H46.1277C39.0543 320 33.3202 325.664 33.3202 332.651V389.906C33.3202 396.893 39.0543 402.557 46.1277 402.557H104.092C111.165 402.557 116.899 396.893 116.899 389.906V332.651C116.899 325.664 111.165 320 104.092 320Z" fill="#80BBD6" fill-opacity="0.7"/>
</g>
<path opacity="0.9" d="M255.045 30.9841H168.946V17.9047C168.946 12.493 166.77 7.30305 162.896 3.47643C159.022 -0.350183 153.768 -2.5 148.289 -2.5C142.811 -2.5 137.556 -0.350183 133.682 3.47643C129.808 7.30305 127.632 12.493 127.632 17.9047V30.9841H19.182V17.9047C19.182 12.493 17.0056 7.30305 13.1316 3.47643C9.25766 -0.350183 4.00349 -2.5 -1.47513 -2.5C-6.95374 -2.5 -12.2079 -0.350183 -16.0819 3.47643C-19.9559 7.30305 -22.1323 12.493 -22.1323 17.9047V30.9841H-108.045C-119.169 30.9949 -129.834 35.3645 -137.7 43.1341C-145.565 50.9036 -149.989 61.4382 -150 72.4259V431.119C-149.989 442.107 -145.565 452.642 -137.7 460.411C-129.834 468.181 -119.169 472.55 -108.045 472.561H255.045C266.169 472.55 276.834 468.181 284.7 460.411C292.565 452.642 296.989 442.107 297 431.119V72.4259C296.989 61.4382 292.565 50.9036 284.7 43.1341C276.834 35.3645 266.169 30.9949 255.045 30.9841ZM272.418 433.874C272.386 437.652 270.852 441.267 268.147 443.938C265.442 446.61 261.783 448.125 257.958 448.157H-110.875C-114.717 448.147 -118.399 446.642 -121.125 443.968C-123.851 441.295 -125.401 437.668 -125.439 433.874V69.6509C-125.433 65.8373 -123.897 62.1815 -121.167 59.4849C-118.437 56.7883 -114.736 55.271 -110.875 55.2656H-23.5783V55.939C-23.5783 61.4318 -21.3692 66.6996 -17.4371 70.5836C-13.5051 74.4677 -8.17204 76.6497 -2.61125 76.6497C2.94955 76.6497 8.28258 74.4677 12.2146 70.5836C16.1467 66.6996 18.3557 61.4318 18.3557 55.939V55.2656H128.52V55.939C128.691 61.3166 130.974 66.4174 134.885 70.1617C138.797 73.906 144.03 75.9997 149.477 75.9997C154.924 75.9997 160.157 73.906 164.068 70.1617C167.98 66.4174 170.263 61.3166 170.434 55.939V55.2656H257.855C261.699 55.2925 265.377 56.82 268.086 59.5148C270.795 62.2097 272.315 65.8533 272.315 69.6509L272.418 433.874Z" fill="#80BBD6"/>
<rect x="140.448" y="270.535" width="30.1388" height="82.4891" rx="2" transform="rotate(-90 140.448 270.535)" fill="#80BBD6" fill-opacity="0.7"/>
<rect width="30.1348" height="82.5" rx="2" transform="matrix(0.999987 -0.00508599 0.00508465 0.999987 166.415 214.293)" fill="#80BBD6" fill-opacity="0.7"/>
</g>
<defs>
<clipPath id="clip0_137_542">
<rect width="447" height="475" fill="white" transform="translate(-150)"/>
</clipPath>
</defs>
</svg>
